<?xml version="1.0" encoding="utf-8"?>
<svg version="1.1" xmlns:xlink="http://www.w3.org/1999/xlink" width="4px" height="7px" xmlns="http://www.w3.org/2000/svg">
  <defs>
    <pattern id="BGPattern" patternUnits="userSpaceOnUse" alignment="0 0" imageRepeat="None" />
    <mask fill="white" id="Clip281">
      <path d="M 0.34916666666666646 0.994875  L 2.9683333333333337 3.5  L 0.34916666666666646 6.005125  C 0.2859743683140188 6.064939537609531  0.24989982497929178 6.150083193964978  0.24989982497929178 6.239416028376905  C 0.24989982497929178 6.322573465524709  0.2811732669758804 6.402366934009207  0.3369166666666666 6.4614375  C 0.4595253331265443 6.590895895748401  0.657227003632545 6.596819253191575  0.7866666666666665 6.474912499999999  L 3.6502499999999998 3.7345874999999995  C 3.7132974877904985 3.674562528126647  3.7492561875345047 3.5893611716633727  3.7492561875345047 3.499999999999999  C 3.7492561875345047 3.4106388283366265  3.7132974877904985 3.325437471873352  3.6502499999999998 3.2654124999999996  L 0.7866666666666671 0.5250874999999998  C 0.657227003632545 0.403180746808423  0.4595253331265443 0.40910410425159877  0.3369166666666672 0.5385625000000002  C 0.2813416039022574 0.597608078312103  0.25017465244206843 0.6772770125741493  0.25017465244206843 0.7602923614477689  C 0.25017465244206843 0.8497770458345358  0.2863714999999285 0.9350506824889859  0.3497500000000002 0.9948749999999998  Z " fill-rule="evenodd" />
    </mask>
  </defs>
  <g transform="matrix(1 0 0 1 -361 -365 )">
    <path d="M 0.34916666666666646 0.994875  L 2.9683333333333337 3.5  L 0.34916666666666646 6.005125  C 0.2859743683140188 6.064939537609531  0.24989982497929178 6.150083193964978  0.24989982497929178 6.239416028376905  C 0.24989982497929178 6.322573465524709  0.2811732669758804 6.402366934009207  0.3369166666666666 6.4614375  C 0.4595253331265443 6.590895895748401  0.657227003632545 6.596819253191575  0.7866666666666665 6.474912499999999  L 3.6502499999999998 3.7345874999999995  C 3.7132974877904985 3.674562528126647  3.7492561875345047 3.5893611716633727  3.7492561875345047 3.499999999999999  C 3.7492561875345047 3.4106388283366265  3.7132974877904985 3.325437471873352  3.6502499999999998 3.2654124999999996  L 0.7866666666666671 0.5250874999999998  C 0.657227003632545 0.403180746808423  0.4595253331265443 0.40910410425159877  0.3369166666666672 0.5385625000000002  C 0.2813416039022574 0.597608078312103  0.25017465244206843 0.6772770125741493  0.25017465244206843 0.7602923614477689  C 0.25017465244206843 0.8497770458345358  0.2863714999999285 0.9350506824889859  0.3497500000000002 0.9948749999999998  Z " fill-rule="nonzero" fill="rgba(0, 82, 217, 1)" stroke="none" transform="matrix(1 0 0 1 361 365 )" class="fill" />
    <path d="M 0.34916666666666646 0.994875  L 2.9683333333333337 3.5  L 0.34916666666666646 6.005125  C 0.2859743683140188 6.064939537609531  0.24989982497929178 6.150083193964978  0.24989982497929178 6.239416028376905  C 0.24989982497929178 6.322573465524709  0.2811732669758804 6.402366934009207  0.3369166666666666 6.4614375  C 0.4595253331265443 6.590895895748401  0.657227003632545 6.596819253191575  0.7866666666666665 6.474912499999999  L 3.6502499999999998 3.7345874999999995  C 3.7132974877904985 3.674562528126647  3.7492561875345047 3.5893611716633727  3.7492561875345047 3.499999999999999  C 3.7492561875345047 3.4106388283366265  3.7132974877904985 3.325437471873352  3.6502499999999998 3.2654124999999996  L 0.7866666666666671 0.5250874999999998  C 0.657227003632545 0.403180746808423  0.4595253331265443 0.40910410425159877  0.3369166666666672 0.5385625000000002  C 0.2813416039022574 0.597608078312103  0.25017465244206843 0.6772770125741493  0.25017465244206843 0.7602923614477689  C 0.25017465244206843 0.8497770458345358  0.2863714999999285 0.9350506824889859  0.3497500000000002 0.9948749999999998  Z " stroke-width="0" stroke-dasharray="0" stroke="rgba(255, 255, 255, 0)" fill="none" transform="matrix(1 0 0 1 361 365 )" class="stroke" mask="url(#Clip281)" />
  </g>
</svg>