<?xml version="1.0" encoding="utf-8"?>
<svg version="1.1" xmlns:xlink="http://www.w3.org/1999/xlink" width="20px" height="20px" xmlns="http://www.w3.org/2000/svg">
  <defs>
    <pattern id="BGPattern" patternUnits="userSpaceOnUse" alignment="0 0" imageRepeat="None" />
    <mask fill="white" id="Clip108">
      <path d="M 10.328449999999998 4.157045454545452  C 10.41591068209469 3.9569180703047033  10.541758587516057 3.77627695075709  10.698724999999998 3.6255555555555556  L 13.961024999999998 0.49161616161616206  C 14.118260508653153 0.34040839342720786  14.30353681881753 0.2220882873248532  14.506199999999998 0.14345959595959626  C 14.71002122288007 0.06466340347971074  14.927124531839521 0.026867308463069527  15.145299999999995 0.03219696969696984  C 15.363477144084959 0.03767899594068012  15.578473683008177 0.08631513727563976  15.778124999999996 0.17535353535353543  C 15.976775224221399 0.2641087203220389  16.156057329644437 0.3917235235933853  16.305624999999996 0.5508333333333331  L 19.40825 3.84580808080808  C 19.55740143878266 4.004332142492939  19.67405453207888 4.191077329992535  19.7515 4.39530303030303  C 19.829575000000006 4.60090909090909  19.865975 4.820227272727272  19.861325000000004 5.038636363636363  L 19.861525 5.039848484848484  L 19.861325000000004 5.043964646464646  C 19.855613426371534 5.2642721132133765  19.807466634660834 5.481345671479349  19.719575 5.683055555555555  C 19.63212332293462 5.883032541110703  19.506338022486858 6.063540432713669  19.349475000000005 6.214166666666666  L 16.087200000000003 9.347954545454547  C 15.929961717502115 9.499319576746164  15.744616408931947 9.617748753123477  15.541850000000002 9.69641414141414  C 15.3380318138493 9.775239450802292  15.12090474469481 9.81298673013897  14.902725 9.80752525252525  C 14.684685351221198 9.802038180505338  14.469828830083749 9.753401049457022  14.270325 9.664368686868684  C 14.071589314572968 9.575606915323098  13.892241909453816 9.447936471789482  13.742650000000001 9.288737373737373  L 10.6404 5.993914141414139  C 10.490941781387988 5.8353180202727195  10.374007232386894 5.648433793345468  10.296325 5.444015151515149  C 10.218049999999998 5.237651515151512  10.18165 5.017878787878786  10.186925 4.799469696969695  L 10.186925 4.794393939393936  C 10.192642144961308 4.574672495517691  10.24071388942151 4.358184571152858  10.328449999999998 4.157045454545452  Z M 0.6030500000000003 1.0525252525252526  C 0.9215500000000005 0.7308080808080808  1.3616000000000001 0.5310101010101015  1.84585 0.5310101010101008  L 7.0174 0.5310101010101008  C 7.501675 0.5310101010101008  7.9418750000000005 0.7308080808080808  8.2604 1.0525252525252526  C 8.5789 1.3742929292929293  8.7767 1.8187121212121216  8.7767 2.307929292929293  L 8.7767 7.531666666666668  C 8.7767 8.020883838383838  8.5789 8.465328282828285  8.2604 8.787070707070708  C 7.941850000000001 9.108838383838386  7.501675000000002 9.308585858585857  7.0174 9.308585858585857  L 1.84585 9.308585858585857  C 1.3615749999999998 9.308585858585857  0.9215499999999999 9.108838383838384  0.6030500000000003 8.787070707070708  C 0.28450000000000025 8.46530303030303  0.08670000000000044 8.020883838383838  0.08670000000000044 7.531666666666668  L 0.08670000000000044 2.307929292929293  C 0.08670000000000044 1.8188636363636368  0.2845000000000006 1.3742929292929293  0.6030500000000003 1.0525252525252526  Z M 7.3846 1.9371717171717175  C 7.29015 1.8417676767676774  7.160050000000001 1.782550505050506  7.0174 1.782550505050505  L 1.84585 1.782550505050505  C 1.7032000000000003 1.782550505050505  1.5732750000000004 1.8417676767676765  1.4788000000000003 1.9371717171717169  C 1.3843500000000006 2.0325757575757573  1.3257250000000007 2.1639898989898985  1.3257250000000007 2.3079292929292925  L 1.3257250000000007 7.531666666666668  C 1.3257250000000007 7.675757575757577  1.3843500000000006 7.807070707070708  1.4788000000000003 7.902424242424243  C 1.5732500000000003 7.9978282828282845  1.7032000000000003 8.057045454545456  1.84585 8.057045454545456  L 7.0174 8.057045454545456  C 7.160050000000001 8.057045454545456  7.290150000000001 7.997828282828284  7.3846 7.902424242424243  C 7.479 7.807070707070708  7.537675 7.675757575757577  7.537675 7.531666666666668  L 7.537675 2.307929292929293  C 7.537675 2.1638383838383843  7.479 2.0326010101010104  7.3846 1.9371717171717175  Z M 0.6030500000000003 11.564924242424242  C 0.9215500000000005 11.243181818181817  1.3616000000000001 11.043434343434344  1.84585 11.043434343434344  L 7.0174 11.043434343434344  C 7.501675 11.043434343434344  7.9418750000000005 11.243181818181817  8.2604 11.564924242424242  C 8.5789 11.886691919191918  8.7767 12.33118686868687  8.7767 12.820328282828282  L 8.7767 18.044065656565657  C 8.7767 18.53333333333333  8.5789 18.977904040404038  8.2604 19.299696969696967  C 7.941850000000001 19.62143939393939  7.501675000000002 19.821186868686866  7.0174 19.821186868686866  L 1.84585 19.821186868686866  C 1.3615749999999998 19.821186868686866  0.9215499999999999 19.62143939393939  0.6030500000000003 19.299696969696967  C 0.28450000000000025 18.977929292929293  0.08670000000000044 18.53333333333333  0.08670000000000044 18.044065656565657  L 0.08670000000000044 12.820328282828282  C 0.08670000000000044 12.331287878787878  0.2845000000000006 11.886691919191918  0.6030500000000003 11.564924242424242  Z M 7.3846 12.44959595959596  C 7.29015 12.35421717171717  7.160050000000001 12.295050505050504  7.0174 12.295050505050504  L 1.84585 12.295050505050504  C 1.7032000000000003 12.295050505050504  1.5732750000000004 12.35421717171717  1.4788000000000003 12.44959595959596  C 1.3843500000000006 12.545000000000002  1.3257250000000007 12.676464646464646  1.3257250000000007 12.820353535353537  L 1.3257250000000007 18.04409090909091  C 1.3257250000000007 18.188181818181818  1.3843500000000006 18.319621212121213  1.4788000000000003 18.415025252525254  C 1.5732500000000003 18.510429292929295  1.7032000000000003 18.569595959595958  1.84585 18.569595959595958  L 7.0174 18.569595959595958  C 7.160050000000001 18.569595959595958  7.290150000000001 18.510429292929295  7.3846 18.415025252525254  C 7.479 18.319621212121213  7.537675 18.188181818181818  7.537675 18.04409090909091  L 7.537675 12.820353535353537  C 7.537675 12.67628787878788  7.479 12.545025252525253  7.3846 12.44959595959596  Z M 11.1955 11.564924242424242  C 11.514149999999999 11.243181818181817  11.954199999999997 11.043434343434344  12.438375 11.043434343434344  L 17.60985 11.043434343434344  C 18.094025000000002 11.043434343434344  18.534275 11.243181818181817  18.852700000000006 11.564924242424242  C 19.171350000000004 11.886691919191918  19.369000000000007 12.331287878787878  19.369000000000007 12.820328282828282  L 19.369000000000007 18.044065656565657  C 19.369000000000007 18.53333333333333  19.171350000000007 18.977904040404038  18.852700000000006 19.299696969696967  C 18.534275000000004 19.62143939393939  18.094225000000005 19.821186868686866  17.60985000000001 19.821186868686866  L 12.438374999999999 19.821186868686866  C 11.9542 19.821186868686866  11.514149999999999 19.62143939393939  11.1955 19.299696969696967  C 10.877074999999998 18.977929292929293  10.679224999999999 18.53333333333333  10.679224999999999 18.044065656565657  L 10.679224999999999 12.820328282828282  C 10.679224999999999 12.331287878787878  10.877074999999998 11.886691919191918  11.1955 11.564924242424242  Z M 17.9769 12.44959595959596  C 17.882550000000002 12.35421717171717  17.752425000000002 12.295050505050504  17.609875000000002 12.295050505050504  L 12.438375 12.295050505050504  C 12.295825000000002 12.295050505050504  12.165900000000002 12.35421717171717  12.071325000000002 12.44959595959596  C 11.976975000000001 12.545000000000002  11.918400000000002 12.676464646464646  11.918400000000002 12.820353535353537  L 11.918400000000002 18.04409090909091  C 11.918400000000002 18.188181818181818  11.976975000000001 18.319621212121213  12.071325000000002 18.415025252525254  C 12.165875000000002 18.510429292929295  12.295800000000003 18.569595959595958  12.438375 18.569595959595958  L 17.60985 18.569595959595958  C 17.7526 18.569595959595958  17.882525000000005 18.510429292929295  17.9769 18.415025252525254  C 18.071450000000006 18.319621212121213  18.130025000000003 18.188181818181818  18.130025000000003 18.04409090909091  L 18.130025000000003 12.820353535353537  C 18.130025000000003 12.6764898989899  18.071450000000006 12.545025252525253  17.9769 12.44959595959596  Z M 14.87995 1.467070707070707  L 11.61765 4.601010101010102  C 11.586757834031827 4.63095379844553  11.561840694268334 4.6666067806780624  11.54425 4.706035353535353  C 11.527046368975146 4.745579359153779  11.517450648000047 4.788069320298866  11.515975000000001 4.831237373737373  C 11.514961883374436 4.874667283352011  11.522353710449282 4.917320691644101  11.537725000000002 4.95729797979798  C 11.553161308001645 4.997722948141915  11.576230936302279 5.034731028993579  11.60565 5.066262626262627  L 14.708750000000002 8.360606060606061  C 14.738040092281366 8.391739780168242  14.773150253562727 8.41669904097725  14.81205 8.434040404040406  C 14.851129660078735 8.451409202063697  14.893192880305303 8.460896753036902  14.935875 8.461969696969696  C 14.978375 8.462853535353537  15.022099999999998 8.455555555555556  15.062750000000001 8.44  C 15.102406589954294 8.424857289860721  15.138697789795357 8.401923648607324  15.169525 8.372525252525252  L 18.430799999999998 5.238888888888889  C 18.462925 5.207878787878787  18.487924999999997 5.172045454545454  18.5046 5.134040404040404  C 18.521669468879633 5.095464124042933  18.531196792897525 5.054199466910035  18.532649999999997 5.0122474747474755  L 18.532249999999998 5.008560606060605  L 18.532649999999997 5.0067676767676765  C 18.533567644801728 4.964235165253435  18.526106408639325 4.921942637962148  18.510699999999996 4.8823484848484835  C 18.495849999999997 4.8432828282828275  18.472675 4.806338383838383  18.442175 4.773838383838384  L 15.339725000000001 1.4789646464646475  C 15.310396008594546 1.448082752845377  15.275372343840052 1.423291094472  15.236625000000004 1.4059848484848496  C 15.19748955380752 1.3885244476089407  15.155344595978022 1.3789842261467564  15.112575000000001 1.377904040404041  C 15.070075000000001 1.3770454545454556  15.026575 1.3843181818181822  14.985899999999999 1.39989898989899  C 14.946597743986088 1.4148350610610427  14.910650734538 1.4375621508305934  14.880175 1.4667424242424247  Z " fill-rule="evenodd" />
    </mask>
  </defs>
  <g transform="matrix(1 0 0 1 -141 -6 )">
    <path d="M 10.328449999999998 4.157045454545452  C 10.41591068209469 3.9569180703047033  10.541758587516057 3.77627695075709  10.698724999999998 3.6255555555555556  L 13.961024999999998 0.49161616161616206  C 14.118260508653153 0.34040839342720786  14.30353681881753 0.2220882873248532  14.506199999999998 0.14345959595959626  C 14.71002122288007 0.06466340347971074  14.927124531839521 0.026867308463069527  15.145299999999995 0.03219696969696984  C 15.363477144084959 0.03767899594068012  15.578473683008177 0.08631513727563976  15.778124999999996 0.17535353535353543  C 15.976775224221399 0.2641087203220389  16.156057329644437 0.3917235235933853  16.305624999999996 0.5508333333333331  L 19.40825 3.84580808080808  C 19.55740143878266 4.004332142492939  19.67405453207888 4.191077329992535  19.7515 4.39530303030303  C 19.829575000000006 4.60090909090909  19.865975 4.820227272727272  19.861325000000004 5.038636363636363  L 19.861525 5.039848484848484  L 19.861325000000004 5.043964646464646  C 19.855613426371534 5.2642721132133765  19.807466634660834 5.481345671479349  19.719575 5.683055555555555  C 19.63212332293462 5.883032541110703  19.506338022486858 6.063540432713669  19.349475000000005 6.214166666666666  L 16.087200000000003 9.347954545454547  C 15.929961717502115 9.499319576746164  15.744616408931947 9.617748753123477  15.541850000000002 9.69641414141414  C 15.3380318138493 9.775239450802292  15.12090474469481 9.81298673013897  14.902725 9.80752525252525  C 14.684685351221198 9.802038180505338  14.469828830083749 9.753401049457022  14.270325 9.664368686868684  C 14.071589314572968 9.575606915323098  13.892241909453816 9.447936471789482  13.742650000000001 9.288737373737373  L 10.6404 5.993914141414139  C 10.490941781387988 5.8353180202727195  10.374007232386894 5.648433793345468  10.296325 5.444015151515149  C 10.218049999999998 5.237651515151512  10.18165 5.017878787878786  10.186925 4.799469696969695  L 10.186925 4.794393939393936  C 10.192642144961308 4.574672495517691  10.24071388942151 4.358184571152858  10.328449999999998 4.157045454545452  Z M 0.6030500000000003 1.0525252525252526  C 0.9215500000000005 0.7308080808080808  1.3616000000000001 0.5310101010101015  1.84585 0.5310101010101008  L 7.0174 0.5310101010101008  C 7.501675 0.5310101010101008  7.9418750000000005 0.7308080808080808  8.2604 1.0525252525252526  C 8.5789 1.3742929292929293  8.7767 1.8187121212121216  8.7767 2.307929292929293  L 8.7767 7.531666666666668  C 8.7767 8.020883838383838  8.5789 8.465328282828285  8.2604 8.787070707070708  C 7.941850000000001 9.108838383838386  7.501675000000002 9.308585858585857  7.0174 9.308585858585857  L 1.84585 9.308585858585857  C 1.3615749999999998 9.308585858585857  0.9215499999999999 9.108838383838384  0.6030500000000003 8.787070707070708  C 0.28450000000000025 8.46530303030303  0.08670000000000044 8.020883838383838  0.08670000000000044 7.531666666666668  L 0.08670000000000044 2.307929292929293  C 0.08670000000000044 1.8188636363636368  0.2845000000000006 1.3742929292929293  0.6030500000000003 1.0525252525252526  Z M 7.3846 1.9371717171717175  C 7.29015 1.8417676767676774  7.160050000000001 1.782550505050506  7.0174 1.782550505050505  L 1.84585 1.782550505050505  C 1.7032000000000003 1.782550505050505  1.5732750000000004 1.8417676767676765  1.4788000000000003 1.9371717171717169  C 1.3843500000000006 2.0325757575757573  1.3257250000000007 2.1639898989898985  1.3257250000000007 2.3079292929292925  L 1.3257250000000007 7.531666666666668  C 1.3257250000000007 7.675757575757577  1.3843500000000006 7.807070707070708  1.4788000000000003 7.902424242424243  C 1.5732500000000003 7.9978282828282845  1.7032000000000003 8.057045454545456  1.84585 8.057045454545456  L 7.0174 8.057045454545456  C 7.160050000000001 8.057045454545456  7.290150000000001 7.997828282828284  7.3846 7.902424242424243  C 7.479 7.807070707070708  7.537675 7.675757575757577  7.537675 7.531666666666668  L 7.537675 2.307929292929293  C 7.537675 2.1638383838383843  7.479 2.0326010101010104  7.3846 1.9371717171717175  Z M 0.6030500000000003 11.564924242424242  C 0.9215500000000005 11.243181818181817  1.3616000000000001 11.043434343434344  1.84585 11.043434343434344  L 7.0174 11.043434343434344  C 7.501675 11.043434343434344  7.9418750000000005 11.243181818181817  8.2604 11.564924242424242  C 8.5789 11.886691919191918  8.7767 12.33118686868687  8.7767 12.820328282828282  L 8.7767 18.044065656565657  C 8.7767 18.53333333333333  8.5789 18.977904040404038  8.2604 19.299696969696967  C 7.941850000000001 19.62143939393939  7.501675000000002 19.821186868686866  7.0174 19.821186868686866  L 1.84585 19.821186868686866  C 1.3615749999999998 19.821186868686866  0.9215499999999999 19.62143939393939  0.6030500000000003 19.299696969696967  C 0.28450000000000025 18.977929292929293  0.08670000000000044 18.53333333333333  0.08670000000000044 18.044065656565657  L 0.08670000000000044 12.820328282828282  C 0.08670000000000044 12.331287878787878  0.2845000000000006 11.886691919191918  0.6030500000000003 11.564924242424242  Z M 7.3846 12.44959595959596  C 7.29015 12.35421717171717  7.160050000000001 12.295050505050504  7.0174 12.295050505050504  L 1.84585 12.295050505050504  C 1.7032000000000003 12.295050505050504  1.5732750000000004 12.35421717171717  1.4788000000000003 12.44959595959596  C 1.3843500000000006 12.545000000000002  1.3257250000000007 12.676464646464646  1.3257250000000007 12.820353535353537  L 1.3257250000000007 18.04409090909091  C 1.3257250000000007 18.188181818181818  1.3843500000000006 18.319621212121213  1.4788000000000003 18.415025252525254  C 1.5732500000000003 18.510429292929295  1.7032000000000003 18.569595959595958  1.84585 18.569595959595958  L 7.0174 18.569595959595958  C 7.160050000000001 18.569595959595958  7.290150000000001 18.510429292929295  7.3846 18.415025252525254  C 7.479 18.319621212121213  7.537675 18.188181818181818  7.537675 18.04409090909091  L 7.537675 12.820353535353537  C 7.537675 12.67628787878788  7.479 12.545025252525253  7.3846 12.44959595959596  Z M 11.1955 11.564924242424242  C 11.514149999999999 11.243181818181817  11.954199999999997 11.043434343434344  12.438375 11.043434343434344  L 17.60985 11.043434343434344  C 18.094025000000002 11.043434343434344  18.534275 11.243181818181817  18.852700000000006 11.564924242424242  C 19.171350000000004 11.886691919191918  19.369000000000007 12.331287878787878  19.369000000000007 12.820328282828282  L 19.369000000000007 18.044065656565657  C 19.369000000000007 18.53333333333333  19.171350000000007 18.977904040404038  18.852700000000006 19.299696969696967  C 18.534275000000004 19.62143939393939  18.094225000000005 19.821186868686866  17.60985000000001 19.821186868686866  L 12.438374999999999 19.821186868686866  C 11.9542 19.821186868686866  11.514149999999999 19.62143939393939  11.1955 19.299696969696967  C 10.877074999999998 18.977929292929293  10.679224999999999 18.53333333333333  10.679224999999999 18.044065656565657  L 10.679224999999999 12.820328282828282  C 10.679224999999999 12.331287878787878  10.877074999999998 11.886691919191918  11.1955 11.564924242424242  Z M 17.9769 12.44959595959596  C 17.882550000000002 12.35421717171717  17.752425000000002 12.295050505050504  17.609875000000002 12.295050505050504  L 12.438375 12.295050505050504  C 12.295825000000002 12.295050505050504  12.165900000000002 12.35421717171717  12.071325000000002 12.44959595959596  C 11.976975000000001 12.545000000000002  11.918400000000002 12.676464646464646  11.918400000000002 12.820353535353537  L 11.918400000000002 18.04409090909091  C 11.918400000000002 18.188181818181818  11.976975000000001 18.319621212121213  12.071325000000002 18.415025252525254  C 12.165875000000002 18.510429292929295  12.295800000000003 18.569595959595958  12.438375 18.569595959595958  L 17.60985 18.569595959595958  C 17.7526 18.569595959595958  17.882525000000005 18.510429292929295  17.9769 18.415025252525254  C 18.071450000000006 18.319621212121213  18.130025000000003 18.188181818181818  18.130025000000003 18.04409090909091  L 18.130025000000003 12.820353535353537  C 18.130025000000003 12.6764898989899  18.071450000000006 12.545025252525253  17.9769 12.44959595959596  Z M 14.87995 1.467070707070707  L 11.61765 4.601010101010102  C 11.586757834031827 4.63095379844553  11.561840694268334 4.6666067806780624  11.54425 4.706035353535353  C 11.527046368975146 4.745579359153779  11.517450648000047 4.788069320298866  11.515975000000001 4.831237373737373  C 11.514961883374436 4.874667283352011  11.522353710449282 4.917320691644101  11.537725000000002 4.95729797979798  C 11.553161308001645 4.997722948141915  11.576230936302279 5.034731028993579  11.60565 5.066262626262627  L 14.708750000000002 8.360606060606061  C 14.738040092281366 8.391739780168242  14.773150253562727 8.41669904097725  14.81205 8.434040404040406  C 14.851129660078735 8.451409202063697  14.893192880305303 8.460896753036902  14.935875 8.461969696969696  C 14.978375 8.462853535353537  15.022099999999998 8.455555555555556  15.062750000000001 8.44  C 15.102406589954294 8.424857289860721  15.138697789795357 8.401923648607324  15.169525 8.372525252525252  L 18.430799999999998 5.238888888888889  C 18.462925 5.207878787878787  18.487924999999997 5.172045454545454  18.5046 5.134040404040404  C 18.521669468879633 5.095464124042933  18.531196792897525 5.054199466910035  18.532649999999997 5.0122474747474755  L 18.532249999999998 5.008560606060605  L 18.532649999999997 5.0067676767676765  C 18.533567644801728 4.964235165253435  18.526106408639325 4.921942637962148  18.510699999999996 4.8823484848484835  C 18.495849999999997 4.8432828282828275  18.472675 4.806338383838383  18.442175 4.773838383838384  L 15.339725000000001 1.4789646464646475  C 15.310396008594546 1.448082752845377  15.275372343840052 1.423291094472  15.236625000000004 1.4059848484848496  C 15.19748955380752 1.3885244476089407  15.155344595978022 1.3789842261467564  15.112575000000001 1.377904040404041  C 15.070075000000001 1.3770454545454556  15.026575 1.3843181818181822  14.985899999999999 1.39989898989899  C 14.946597743986088 1.4148350610610427  14.910650734538 1.4375621508305934  14.880175 1.4667424242424247  Z " fill-rule="nonzero" fill="rgba(215, 215, 215, 1)" stroke="none" transform="matrix(1 0 0 1 141 6 )" class="fill" />
    <path d="M 10.328449999999998 4.157045454545452  C 10.41591068209469 3.9569180703047033  10.541758587516057 3.77627695075709  10.698724999999998 3.6255555555555556  L 13.961024999999998 0.49161616161616206  C 14.118260508653153 0.34040839342720786  14.30353681881753 0.2220882873248532  14.506199999999998 0.14345959595959626  C 14.71002122288007 0.06466340347971074  14.927124531839521 0.026867308463069527  15.145299999999995 0.03219696969696984  C 15.363477144084959 0.03767899594068012  15.578473683008177 0.08631513727563976  15.778124999999996 0.17535353535353543  C 15.976775224221399 0.2641087203220389  16.156057329644437 0.3917235235933853  16.305624999999996 0.5508333333333331  L 19.40825 3.84580808080808  C 19.55740143878266 4.004332142492939  19.67405453207888 4.191077329992535  19.7515 4.39530303030303  C 19.829575000000006 4.60090909090909  19.865975 4.820227272727272  19.861325000000004 5.038636363636363  L 19.861525 5.039848484848484  L 19.861325000000004 5.043964646464646  C 19.855613426371534 5.2642721132133765  19.807466634660834 5.481345671479349  19.719575 5.683055555555555  C 19.63212332293462 5.883032541110703  19.506338022486858 6.063540432713669  19.349475000000005 6.214166666666666  L 16.087200000000003 9.347954545454547  C 15.929961717502115 9.499319576746164  15.744616408931947 9.617748753123477  15.541850000000002 9.69641414141414  C 15.3380318138493 9.775239450802292  15.12090474469481 9.81298673013897  14.902725 9.80752525252525  C 14.684685351221198 9.802038180505338  14.469828830083749 9.753401049457022  14.270325 9.664368686868684  C 14.071589314572968 9.575606915323098  13.892241909453816 9.447936471789482  13.742650000000001 9.288737373737373  L 10.6404 5.993914141414139  C 10.490941781387988 5.8353180202727195  10.374007232386894 5.648433793345468  10.296325 5.444015151515149  C 10.218049999999998 5.237651515151512  10.18165 5.017878787878786  10.186925 4.799469696969695  L 10.186925 4.794393939393936  C 10.192642144961308 4.574672495517691  10.24071388942151 4.358184571152858  10.328449999999998 4.157045454545452  Z " stroke-width="0" stroke-dasharray="0" stroke="rgba(255, 255, 255, 0)" fill="none" transform="matrix(1 0 0 1 141 6 )" class="stroke" mask="url(#Clip108)" />
    <path d="M 0.6030500000000003 1.0525252525252526  C 0.9215500000000005 0.7308080808080808  1.3616000000000001 0.5310101010101015  1.84585 0.5310101010101008  L 7.0174 0.5310101010101008  C 7.501675 0.5310101010101008  7.9418750000000005 0.7308080808080808  8.2604 1.0525252525252526  C 8.5789 1.3742929292929293  8.7767 1.8187121212121216  8.7767 2.307929292929293  L 8.7767 7.531666666666668  C 8.7767 8.020883838383838  8.5789 8.465328282828285  8.2604 8.787070707070708  C 7.941850000000001 9.108838383838386  7.501675000000002 9.308585858585857  7.0174 9.308585858585857  L 1.84585 9.308585858585857  C 1.3615749999999998 9.308585858585857  0.9215499999999999 9.108838383838384  0.6030500000000003 8.787070707070708  C 0.28450000000000025 8.46530303030303  0.08670000000000044 8.020883838383838  0.08670000000000044 7.531666666666668  L 0.08670000000000044 2.307929292929293  C 0.08670000000000044 1.8188636363636368  0.2845000000000006 1.3742929292929293  0.6030500000000003 1.0525252525252526  Z " stroke-width="0" stroke-dasharray="0" stroke="rgba(255, 255, 255, 0)" fill="none" transform="matrix(1 0 0 1 141 6 )" class="stroke" mask="url(#Clip108)" />
    <path d="M 7.3846 1.9371717171717175  C 7.29015 1.8417676767676774  7.160050000000001 1.782550505050506  7.0174 1.782550505050505  L 1.84585 1.782550505050505  C 1.7032000000000003 1.782550505050505  1.5732750000000004 1.8417676767676765  1.4788000000000003 1.9371717171717169  C 1.3843500000000006 2.0325757575757573  1.3257250000000007 2.1639898989898985  1.3257250000000007 2.3079292929292925  L 1.3257250000000007 7.531666666666668  C 1.3257250000000007 7.675757575757577  1.3843500000000006 7.807070707070708  1.4788000000000003 7.902424242424243  C 1.5732500000000003 7.9978282828282845  1.7032000000000003 8.057045454545456  1.84585 8.057045454545456  L 7.0174 8.057045454545456  C 7.160050000000001 8.057045454545456  7.290150000000001 7.997828282828284  7.3846 7.902424242424243  C 7.479 7.807070707070708  7.537675 7.675757575757577  7.537675 7.531666666666668  L 7.537675 2.307929292929293  C 7.537675 2.1638383838383843  7.479 2.0326010101010104  7.3846 1.9371717171717175  Z " stroke-width="0" stroke-dasharray="0" stroke="rgba(255, 255, 255, 0)" fill="none" transform="matrix(1 0 0 1 141 6 )" class="stroke" mask="url(#Clip108)" />
    <path d="M 0.6030500000000003 11.564924242424242  C 0.9215500000000005 11.243181818181817  1.3616000000000001 11.043434343434344  1.84585 11.043434343434344  L 7.0174 11.043434343434344  C 7.501675 11.043434343434344  7.9418750000000005 11.243181818181817  8.2604 11.564924242424242  C 8.5789 11.886691919191918  8.7767 12.33118686868687  8.7767 12.820328282828282  L 8.7767 18.044065656565657  C 8.7767 18.53333333333333  8.5789 18.977904040404038  8.2604 19.299696969696967  C 7.941850000000001 19.62143939393939  7.501675000000002 19.821186868686866  7.0174 19.821186868686866  L 1.84585 19.821186868686866  C 1.3615749999999998 19.821186868686866  0.9215499999999999 19.62143939393939  0.6030500000000003 19.299696969696967  C 0.28450000000000025 18.977929292929293  0.08670000000000044 18.53333333333333  0.08670000000000044 18.044065656565657  L 0.08670000000000044 12.820328282828282  C 0.08670000000000044 12.331287878787878  0.2845000000000006 11.886691919191918  0.6030500000000003 11.564924242424242  Z " stroke-width="0" stroke-dasharray="0" stroke="rgba(255, 255, 255, 0)" fill="none" transform="matrix(1 0 0 1 141 6 )" class="stroke" mask="url(#Clip108)" />
    <path d="M 7.3846 12.44959595959596  C 7.29015 12.35421717171717  7.160050000000001 12.295050505050504  7.0174 12.295050505050504  L 1.84585 12.295050505050504  C 1.7032000000000003 12.295050505050504  1.5732750000000004 12.35421717171717  1.4788000000000003 12.44959595959596  C 1.3843500000000006 12.545000000000002  1.3257250000000007 12.676464646464646  1.3257250000000007 12.820353535353537  L 1.3257250000000007 18.04409090909091  C 1.3257250000000007 18.188181818181818  1.3843500000000006 18.319621212121213  1.4788000000000003 18.415025252525254  C 1.5732500000000003 18.510429292929295  1.7032000000000003 18.569595959595958  1.84585 18.569595959595958  L 7.0174 18.569595959595958  C 7.160050000000001 18.569595959595958  7.290150000000001 18.510429292929295  7.3846 18.415025252525254  C 7.479 18.319621212121213  7.537675 18.188181818181818  7.537675 18.04409090909091  L 7.537675 12.820353535353537  C 7.537675 12.67628787878788  7.479 12.545025252525253  7.3846 12.44959595959596  Z " stroke-width="0" stroke-dasharray="0" stroke="rgba(255, 255, 255, 0)" fill="none" transform="matrix(1 0 0 1 141 6 )" class="stroke" mask="url(#Clip108)" />
    <path d="M 11.1955 11.564924242424242  C 11.514149999999999 11.243181818181817  11.954199999999997 11.043434343434344  12.438375 11.043434343434344  L 17.60985 11.043434343434344  C 18.094025000000002 11.043434343434344  18.534275 11.243181818181817  18.852700000000006 11.564924242424242  C 19.171350000000004 11.886691919191918  19.369000000000007 12.331287878787878  19.369000000000007 12.820328282828282  L 19.369000000000007 18.044065656565657  C 19.369000000000007 18.53333333333333  19.171350000000007 18.977904040404038  18.852700000000006 19.299696969696967  C 18.534275000000004 19.62143939393939  18.094225000000005 19.821186868686866  17.60985000000001 19.821186868686866  L 12.438374999999999 19.821186868686866  C 11.9542 19.821186868686866  11.514149999999999 19.62143939393939  11.1955 19.299696969696967  C 10.877074999999998 18.977929292929293  10.679224999999999 18.53333333333333  10.679224999999999 18.044065656565657  L 10.679224999999999 12.820328282828282  C 10.679224999999999 12.331287878787878  10.877074999999998 11.886691919191918  11.1955 11.564924242424242  Z " stroke-width="0" stroke-dasharray="0" stroke="rgba(255, 255, 255, 0)" fill="none" transform="matrix(1 0 0 1 141 6 )" class="stroke" mask="url(#Clip108)" />
    <path d="M 17.9769 12.44959595959596  C 17.882550000000002 12.35421717171717  17.752425000000002 12.295050505050504  17.609875000000002 12.295050505050504  L 12.438375 12.295050505050504  C 12.295825000000002 12.295050505050504  12.165900000000002 12.35421717171717  12.071325000000002 12.44959595959596  C 11.976975000000001 12.545000000000002  11.918400000000002 12.676464646464646  11.918400000000002 12.820353535353537  L 11.918400000000002 18.04409090909091  C 11.918400000000002 18.188181818181818  11.976975000000001 18.319621212121213  12.071325000000002 18.415025252525254  C 12.165875000000002 18.510429292929295  12.295800000000003 18.569595959595958  12.438375 18.569595959595958  L 17.60985 18.569595959595958  C 17.7526 18.569595959595958  17.882525000000005 18.510429292929295  17.9769 18.415025252525254  C 18.071450000000006 18.319621212121213  18.130025000000003 18.188181818181818  18.130025000000003 18.04409090909091  L 18.130025000000003 12.820353535353537  C 18.130025000000003 12.6764898989899  18.071450000000006 12.545025252525253  17.9769 12.44959595959596  Z " stroke-width="0" stroke-dasharray="0" stroke="rgba(255, 255, 255, 0)" fill="none" transform="matrix(1 0 0 1 141 6 )" class="stroke" mask="url(#Clip108)" />
    <path d="M 14.87995 1.467070707070707  L 11.61765 4.601010101010102  C 11.586757834031827 4.63095379844553  11.561840694268334 4.6666067806780624  11.54425 4.706035353535353  C 11.527046368975146 4.745579359153779  11.517450648000047 4.788069320298866  11.515975000000001 4.831237373737373  C 11.514961883374436 4.874667283352011  11.522353710449282 4.917320691644101  11.537725000000002 4.95729797979798  C 11.553161308001645 4.997722948141915  11.576230936302279 5.034731028993579  11.60565 5.066262626262627  L 14.708750000000002 8.360606060606061  C 14.738040092281366 8.391739780168242  14.773150253562727 8.41669904097725  14.81205 8.434040404040406  C 14.851129660078735 8.451409202063697  14.893192880305303 8.460896753036902  14.935875 8.461969696969696  C 14.978375 8.462853535353537  15.022099999999998 8.455555555555556  15.062750000000001 8.44  C 15.102406589954294 8.424857289860721  15.138697789795357 8.401923648607324  15.169525 8.372525252525252  L 18.430799999999998 5.238888888888889  C 18.462925 5.207878787878787  18.487924999999997 5.172045454545454  18.5046 5.134040404040404  C 18.521669468879633 5.095464124042933  18.531196792897525 5.054199466910035  18.532649999999997 5.0122474747474755  L 18.532249999999998 5.008560606060605  L 18.532649999999997 5.0067676767676765  C 18.533567644801728 4.964235165253435  18.526106408639325 4.921942637962148  18.510699999999996 4.8823484848484835  C 18.495849999999997 4.8432828282828275  18.472675 4.806338383838383  18.442175 4.773838383838384  L 15.339725000000001 1.4789646464646475  C 15.310396008594546 1.448082752845377  15.275372343840052 1.423291094472  15.236625000000004 1.4059848484848496  C 15.19748955380752 1.3885244476089407  15.155344595978022 1.3789842261467564  15.112575000000001 1.377904040404041  C 15.070075000000001 1.3770454545454556  15.026575 1.3843181818181822  14.985899999999999 1.39989898989899  C 14.946597743986088 1.4148350610610427  14.910650734538 1.4375621508305934  14.880175 1.4667424242424247  Z " stroke-width="0" stroke-dasharray="0" stroke="rgba(255, 255, 255, 0)" fill="none" transform="matrix(1 0 0 1 141 6 )" class="stroke" mask="url(#Clip108)" />
  </g>
</svg>