<?xml version="1.0" encoding="utf-8"?>
<svg version="1.1" xmlns:xlink="http://www.w3.org/1999/xlink" width="20px" height="20px" xmlns="http://www.w3.org/2000/svg">
  <defs>
    <pattern id="BGPattern" patternUnits="userSpaceOnUse" alignment="0 0" imageRepeat="None" />
    <mask fill="white" id="Clip213">
      <path d="M 19.86842105263158 18.88157894736842  C 19.86842105263158 18.335526315789473  19.42763157894737 17.894736842105264  18.88157894736842 17.894736842105264  L 1.118421052631579 17.894736842105264  C 0.5723684210526315 17.894736842105264  0.13157894736842105 18.335526315789473  0.13157894736842105 18.88157894736842  C 0.13157894736842105 19.42763157894737  0.5723684210526315 19.86842105263158  1.118421052631579 19.86842105263158  L 18.88157894736842 19.86842105263158  C 19.42763157894737 19.86842105263158  19.86842105263158 19.42763157894737  19.86842105263158 18.88157894736842  Z M 0.13157894736842105 13.289473684210527  C 0.13157894736842105 14.743421052631579  1.3092105263157896 15.921052631578947  2.7631578947368425 15.921052631578947  C 4.217105263157895 15.921052631578947  5.394736842105264 14.743421052631579  5.394736842105264 13.289473684210527  L 5.394736842105264 9.342105263157896  C 5.394736842105264 7.888157894736842  4.217105263157895 6.7105263157894735  2.7631578947368425 6.7105263157894735  C 1.3092105263157892 6.7105263157894735  0.13157894736842105 7.888157894736842  0.13157894736842105 9.342105263157896  L 0.13157894736842105 13.289473684210527  Z M 2.1052631578947367 13.289473684210527  L 2.1052631578947367 9.342105263157896  C 2.1052631578947367 8.978070175438596  2.399122807017544 8.68421052631579  2.7631578947368425 8.68421052631579  C 3.12719298245614 8.68421052631579  3.4210526315789473 8.978070175438596  3.4210526315789473 9.342105263157896  L 3.4210526315789473 13.289473684210527  C 3.4210526315789473 13.653508771929825  3.12719298245614 13.94736842105263  2.7631578947368425 13.94736842105263  C 2.399122807017544 13.94736842105263  2.1052631578947367 13.653508771929825  2.1052631578947367 13.289473684210527  Z M 7.368421052631579 13.289473684210527  C 7.368421052631579 14.743421052631579  8.546052631578947 15.921052631578947  10 15.921052631578947  C 11.453947368421051 15.921052631578947  12.631578947368421 14.743421052631579  12.631578947368421 13.289473684210527  L 12.631578947368421 6.7105263157894735  C 12.631578947368421 5.256578947368421  11.453947368421051 4.078947368421052  10 4.078947368421052  C 8.546052631578949 4.078947368421052  7.368421052631579 5.256578947368421  7.368421052631579 6.7105263157894735  L 7.368421052631579 13.289473684210527  Z M 9.342105263157896 13.289473684210527  L 9.342105263157896 6.7105263157894735  C 9.342105263157896 6.346491228070175  9.635964912280702 6.052631578947368  10 6.052631578947368  C 10.364035087719298 6.052631578947368  10.657894736842106 6.346491228070175  10.657894736842106 6.7105263157894735  L 10.657894736842106 13.289473684210527  C 10.657894736842106 13.653508771929825  10.364035087719298 13.94736842105263  10 13.94736842105263  C 9.635964912280702 13.94736842105263  9.342105263157896 13.653508771929825  9.342105263157896 13.289473684210527  Z M 19.86842105263158 2.7631578947368425  C 19.86842105263158 1.3092105263157896  18.690789473684212 0.13157894736842105  17.236842105263158 0.13157894736842105  C 15.782894736842106 0.13157894736842105  14.605263157894736 1.3092105263157896  14.605263157894736 2.7631578947368425  L 14.605263157894736 13.289473684210527  C 14.605263157894736 14.743421052631579  15.782894736842106 15.921052631578947  17.236842105263158 15.921052631578947  C 18.690789473684212 15.921052631578947  19.86842105263158 14.743421052631579  19.86842105263158 13.289473684210527  L 19.86842105263158 2.7631578947368425  Z M 17.894736842105264 2.7631578947368425  L 17.894736842105264 13.289473684210527  C 17.894736842105264 13.653508771929825  17.600877192982455 13.94736842105263  17.236842105263158 13.94736842105263  C 16.87280701754386 13.94736842105263  16.578947368421055 13.653508771929825  16.578947368421055 13.289473684210527  L 16.578947368421055 2.7631578947368425  C 16.578947368421055 2.399122807017544  16.87280701754386 2.1052631578947367  17.236842105263158 2.1052631578947367  C 17.600877192982455 2.1052631578947367  17.894736842105264 2.399122807017544  17.894736842105264 2.7631578947368425  Z " fill-rule="evenodd" />
    </mask>
  </defs>
  <g transform="matrix(1 0 0 1 -236 -6 )">
    <path d="M 19.86842105263158 18.88157894736842  C 19.86842105263158 18.335526315789473  19.42763157894737 17.894736842105264  18.88157894736842 17.894736842105264  L 1.118421052631579 17.894736842105264  C 0.5723684210526315 17.894736842105264  0.13157894736842105 18.335526315789473  0.13157894736842105 18.88157894736842  C 0.13157894736842105 19.42763157894737  0.5723684210526315 19.86842105263158  1.118421052631579 19.86842105263158  L 18.88157894736842 19.86842105263158  C 19.42763157894737 19.86842105263158  19.86842105263158 19.42763157894737  19.86842105263158 18.88157894736842  Z M 0.13157894736842105 13.289473684210527  C 0.13157894736842105 14.743421052631579  1.3092105263157896 15.921052631578947  2.7631578947368425 15.921052631578947  C 4.217105263157895 15.921052631578947  5.394736842105264 14.743421052631579  5.394736842105264 13.289473684210527  L 5.394736842105264 9.342105263157896  C 5.394736842105264 7.888157894736842  4.217105263157895 6.7105263157894735  2.7631578947368425 6.7105263157894735  C 1.3092105263157892 6.7105263157894735  0.13157894736842105 7.888157894736842  0.13157894736842105 9.342105263157896  L 0.13157894736842105 13.289473684210527  Z M 2.1052631578947367 13.289473684210527  L 2.1052631578947367 9.342105263157896  C 2.1052631578947367 8.978070175438596  2.399122807017544 8.68421052631579  2.7631578947368425 8.68421052631579  C 3.12719298245614 8.68421052631579  3.4210526315789473 8.978070175438596  3.4210526315789473 9.342105263157896  L 3.4210526315789473 13.289473684210527  C 3.4210526315789473 13.653508771929825  3.12719298245614 13.94736842105263  2.7631578947368425 13.94736842105263  C 2.399122807017544 13.94736842105263  2.1052631578947367 13.653508771929825  2.1052631578947367 13.289473684210527  Z M 7.368421052631579 13.289473684210527  C 7.368421052631579 14.743421052631579  8.546052631578947 15.921052631578947  10 15.921052631578947  C 11.453947368421051 15.921052631578947  12.631578947368421 14.743421052631579  12.631578947368421 13.289473684210527  L 12.631578947368421 6.7105263157894735  C 12.631578947368421 5.256578947368421  11.453947368421051 4.078947368421052  10 4.078947368421052  C 8.546052631578949 4.078947368421052  7.368421052631579 5.256578947368421  7.368421052631579 6.7105263157894735  L 7.368421052631579 13.289473684210527  Z M 9.342105263157896 13.289473684210527  L 9.342105263157896 6.7105263157894735  C 9.342105263157896 6.346491228070175  9.635964912280702 6.052631578947368  10 6.052631578947368  C 10.364035087719298 6.052631578947368  10.657894736842106 6.346491228070175  10.657894736842106 6.7105263157894735  L 10.657894736842106 13.289473684210527  C 10.657894736842106 13.653508771929825  10.364035087719298 13.94736842105263  10 13.94736842105263  C 9.635964912280702 13.94736842105263  9.342105263157896 13.653508771929825  9.342105263157896 13.289473684210527  Z M 19.86842105263158 2.7631578947368425  C 19.86842105263158 1.3092105263157896  18.690789473684212 0.13157894736842105  17.236842105263158 0.13157894736842105  C 15.782894736842106 0.13157894736842105  14.605263157894736 1.3092105263157896  14.605263157894736 2.7631578947368425  L 14.605263157894736 13.289473684210527  C 14.605263157894736 14.743421052631579  15.782894736842106 15.921052631578947  17.236842105263158 15.921052631578947  C 18.690789473684212 15.921052631578947  19.86842105263158 14.743421052631579  19.86842105263158 13.289473684210527  L 19.86842105263158 2.7631578947368425  Z M 17.894736842105264 2.7631578947368425  L 17.894736842105264 13.289473684210527  C 17.894736842105264 13.653508771929825  17.600877192982455 13.94736842105263  17.236842105263158 13.94736842105263  C 16.87280701754386 13.94736842105263  16.578947368421055 13.653508771929825  16.578947368421055 13.289473684210527  L 16.578947368421055 2.7631578947368425  C 16.578947368421055 2.399122807017544  16.87280701754386 2.1052631578947367  17.236842105263158 2.1052631578947367  C 17.600877192982455 2.1052631578947367  17.894736842105264 2.399122807017544  17.894736842105264 2.7631578947368425  Z " fill-rule="nonzero" fill="rgba(215, 215, 215, 1)" stroke="none" transform="matrix(1 0 0 1 236 6 )" class="fill" />
    <path d="M 19.86842105263158 18.88157894736842  C 19.86842105263158 18.335526315789473  19.42763157894737 17.894736842105264  18.88157894736842 17.894736842105264  L 1.118421052631579 17.894736842105264  C 0.5723684210526315 17.894736842105264  0.13157894736842105 18.335526315789473  0.13157894736842105 18.88157894736842  C 0.13157894736842105 19.42763157894737  0.5723684210526315 19.86842105263158  1.118421052631579 19.86842105263158  L 18.88157894736842 19.86842105263158  C 19.42763157894737 19.86842105263158  19.86842105263158 19.42763157894737  19.86842105263158 18.88157894736842  Z " stroke-width="0" stroke-dasharray="0" stroke="rgba(255, 255, 255, 0)" fill="none" transform="matrix(1 0 0 1 236 6 )" class="stroke" mask="url(#Clip213)" />
    <path d="M 0.13157894736842105 13.289473684210527  C 0.13157894736842105 14.743421052631579  1.3092105263157896 15.921052631578947  2.7631578947368425 15.921052631578947  C 4.217105263157895 15.921052631578947  5.394736842105264 14.743421052631579  5.394736842105264 13.289473684210527  L 5.394736842105264 9.342105263157896  C 5.394736842105264 7.888157894736842  4.217105263157895 6.7105263157894735  2.7631578947368425 6.7105263157894735  C 1.3092105263157892 6.7105263157894735  0.13157894736842105 7.888157894736842  0.13157894736842105 9.342105263157896  L 0.13157894736842105 13.289473684210527  Z " stroke-width="0" stroke-dasharray="0" stroke="rgba(255, 255, 255, 0)" fill="none" transform="matrix(1 0 0 1 236 6 )" class="stroke" mask="url(#Clip213)" />
    <path d="M 2.1052631578947367 13.289473684210527  L 2.1052631578947367 9.342105263157896  C 2.1052631578947367 8.978070175438596  2.399122807017544 8.68421052631579  2.7631578947368425 8.68421052631579  C 3.12719298245614 8.68421052631579  3.4210526315789473 8.978070175438596  3.4210526315789473 9.342105263157896  L 3.4210526315789473 13.289473684210527  C 3.4210526315789473 13.653508771929825  3.12719298245614 13.94736842105263  2.7631578947368425 13.94736842105263  C 2.399122807017544 13.94736842105263  2.1052631578947367 13.653508771929825  2.1052631578947367 13.289473684210527  Z " stroke-width="0" stroke-dasharray="0" stroke="rgba(255, 255, 255, 0)" fill="none" transform="matrix(1 0 0 1 236 6 )" class="stroke" mask="url(#Clip213)" />
    <path d="M 7.368421052631579 13.289473684210527  C 7.368421052631579 14.743421052631579  8.546052631578947 15.921052631578947  10 15.921052631578947  C 11.453947368421051 15.921052631578947  12.631578947368421 14.743421052631579  12.631578947368421 13.289473684210527  L 12.631578947368421 6.7105263157894735  C 12.631578947368421 5.256578947368421  11.453947368421051 4.078947368421052  10 4.078947368421052  C 8.546052631578949 4.078947368421052  7.368421052631579 5.256578947368421  7.368421052631579 6.7105263157894735  L 7.368421052631579 13.289473684210527  Z " stroke-width="0" stroke-dasharray="0" stroke="rgba(255, 255, 255, 0)" fill="none" transform="matrix(1 0 0 1 236 6 )" class="stroke" mask="url(#Clip213)" />
    <path d="M 9.342105263157896 13.289473684210527  L 9.342105263157896 6.7105263157894735  C 9.342105263157896 6.346491228070175  9.635964912280702 6.052631578947368  10 6.052631578947368  C 10.364035087719298 6.052631578947368  10.657894736842106 6.346491228070175  10.657894736842106 6.7105263157894735  L 10.657894736842106 13.289473684210527  C 10.657894736842106 13.653508771929825  10.364035087719298 13.94736842105263  10 13.94736842105263  C 9.635964912280702 13.94736842105263  9.342105263157896 13.653508771929825  9.342105263157896 13.289473684210527  Z " stroke-width="0" stroke-dasharray="0" stroke="rgba(255, 255, 255, 0)" fill="none" transform="matrix(1 0 0 1 236 6 )" class="stroke" mask="url(#Clip213)" />
    <path d="M 19.86842105263158 2.7631578947368425  C 19.86842105263158 1.3092105263157896  18.690789473684212 0.13157894736842105  17.236842105263158 0.13157894736842105  C 15.782894736842106 0.13157894736842105  14.605263157894736 1.3092105263157896  14.605263157894736 2.7631578947368425  L 14.605263157894736 13.289473684210527  C 14.605263157894736 14.743421052631579  15.782894736842106 15.921052631578947  17.236842105263158 15.921052631578947  C 18.690789473684212 15.921052631578947  19.86842105263158 14.743421052631579  19.86842105263158 13.289473684210527  L 19.86842105263158 2.7631578947368425  Z " stroke-width="0" stroke-dasharray="0" stroke="rgba(255, 255, 255, 0)" fill="none" transform="matrix(1 0 0 1 236 6 )" class="stroke" mask="url(#Clip213)" />
    <path d="M 17.894736842105264 2.7631578947368425  L 17.894736842105264 13.289473684210527  C 17.894736842105264 13.653508771929825  17.600877192982455 13.94736842105263  17.236842105263158 13.94736842105263  C 16.87280701754386 13.94736842105263  16.578947368421055 13.653508771929825  16.578947368421055 13.289473684210527  L 16.578947368421055 2.7631578947368425  C 16.578947368421055 2.399122807017544  16.87280701754386 2.1052631578947367  17.236842105263158 2.1052631578947367  C 17.600877192982455 2.1052631578947367  17.894736842105264 2.399122807017544  17.894736842105264 2.7631578947368425  Z " stroke-width="0" stroke-dasharray="0" stroke="rgba(255, 255, 255, 0)" fill="none" transform="matrix(1 0 0 1 236 6 )" class="stroke" mask="url(#Clip213)" />
  </g>
</svg>